<svg xmlns="http://www.w3.org/2000/svg" fill="none" viewBox="-0.645 -0.645 18 18" id="Gift-2--Streamline-Core" height="18" width="18">
  <desc>
    Gift 2 Streamline Icon: https://streamlinehq.com
  </desc>
  <g id="gift-2--reward-box-social-present-gift-media-rating-bow">
    <path id="Vector" stroke="#000000" stroke-linecap="round" stroke-linejoin="round" d="M14.651805428571432 14.602749642857145V7.630000842857143H2.0578603714285717v6.972748800000001c0 0.6592095000000001 0.5343858000000001 1.1935714285714287 1.1935714285714287 1.1935714285714287h10.2068022c0.6592095000000001 0 1.1935714285714287 -0.5343619285714286 1.1935714285714287 -1.1935714285714287Z" stroke-width="1.29"></path>
    <path id="Vector 2239" stroke="#000000" stroke-linecap="round" stroke-linejoin="round" d="M8.355 15.796201714285717V7.627661442857144" stroke-width="1.29"></path>
    <path id="Vector_2" stroke="#000000" stroke-linecap="round" stroke-linejoin="round" d="M15.681022071428574 5.719319764285714v0.71710965c0 0.6591856285714286 -0.5343619285714286 1.1935714285714287 -1.1935714285714287 1.1935714285714287H2.2225016142857146c-0.6591856285714286 0 -1.1935702350000001 -0.5343858000000001 -1.1935702350000001 -1.1935714285714287v-0.71710965c0 -0.6591856285714286 0.5343846064285714 -1.1935714285714287 1.1935702350000001 -1.1935714285714287H14.487450642857144c0.6592095000000001 0 1.1935714285714287 0.5343858000000001 1.1935714285714287 1.1935714285714287Z" stroke-width="1.29"></path>
    <path id="Vector_3" stroke="#000000" stroke-linecap="round" stroke-linejoin="round" d="M8.35514322857143 4.525628978571429c0 -1.044375 -1.2184335214285715 -3.481253978571429 -3.046089771428572 -3.481253978571429 -2.9733177214285718 0 -1.8902113285714288 3.481253978571429 -0.4671041785714286 3.481253978571429" stroke-width="1.29"></path>
    <path id="Vector_4" stroke="#000000" stroke-linecap="round" stroke-linejoin="round" d="M8.355 4.525628978571429C8.355 3.481253978571429 9.573433521428573 1.044375 11.401089771428573 1.044375c2.9733296571428576 0 1.890163585714286 3.481253978571429 0.4671041785714286 3.481253978571429" stroke-width="1.29"></path>
  </g>
</svg>