<svg xmlns="http://www.w3.org/2000/svg" fill="none" viewBox="-0.645 -0.645 18 18" id="Justice-Scale-1--Streamline-Core" height="18" width="18">
  <desc>
    Justice Scale 1 Streamline Icon: https://streamlinehq.com
  </desc>
  <g id="justice-scale-1--office-work-scale-justice-company-arbitration-balance-court">
    <path id="Vector" stroke="#000000" stroke-linecap="round" stroke-linejoin="round" d="M6.564642857142858 11.338928571428573 3.5807142857142864 4.774285714285715 0.5967857142857144 11.338928571428573m5.967857142857143 0c0 0.7913378571428573 -0.31437477857142865 1.5503299285714287 -0.8739688071428573 2.1099955714285716C5.131080021428573 14.00847042857143 4.372099885714286 14.322857142857146 3.5807142857142864 14.322857142857146c-0.7913856 0 -1.5503657357142857 -0.31438671428571435 -2.1099597642857146 -0.8739330000000001C0.9111628800000001 12.889258500000002 0.5967857142857144 12.13026642857143 0.5967857142857144 11.338928571428573m5.967857142857143 0h-5.967857142857143" stroke-width="1.29"></path>
    <path id="Vector_2" stroke="#000000" stroke-linecap="round" stroke-linejoin="round" d="M16.11321428571429 11.338928571428573 13.129285714285716 4.774285714285715 10.145357142857144 11.338928571428573m5.967857142857143 0c0 0.7913378571428573 -0.31438671428571435 1.5503299285714287 -0.8739330000000001 2.1099955714285716C14.679615642857144 14.00847042857143 13.920623571428573 14.322857142857146 13.129285714285716 14.322857142857146s-1.5503657357142857 -0.31438671428571435 -2.1099597642857146 -0.8739330000000001C10.459731921428572 12.889258500000002 10.145357142857144 12.13026642857143 10.145357142857144 11.338928571428573m5.967857142857143 0h-5.967857142857143" stroke-width="1.29"></path>
    <path id="Vector_3" stroke="#000000" stroke-linecap="round" stroke-linejoin="round" d="M1.7903571428571432 4.774285714285715h13.129285714285716" stroke-width="1.29"></path>
    <path id="Vector_4" stroke="#000000" stroke-linecap="round" stroke-linejoin="round" d="M8.355 4.774285714285715V2.3871428571428575" stroke-width="1.29"></path>
  </g>
</svg>