<svg xmlns="http://www.w3.org/2000/svg" fill="none" viewBox="-0.645 -0.645 18 18" id="Shopping-Cart-2--Streamline-Core" height="18" width="18">
  <desc>
    Shopping Cart 2 Streamline Icon: https://streamlinehq.com
  </desc>
  <g id="shopping-cart-2--shopping-cart-checkout">
    <path id="Vector" stroke="#000000" stroke-linecap="round" stroke-linejoin="round" d="M14.539848428571432 8.951785714285716H4.776469950000001l-1.1935714285714287 -5.967857142857143h11.935678478571429c0.08736942857142858 0.0003222642857142858 0.1734259285714286 0.019777478571428576 0.2524403571428572 0.05701690714285715 0.07889507142857144 0.03722749285714286 0.14871900000000002 0.09133208571428574 0.20445878571428575 0.15848241428571433 0.055859142857142864 0.06713839285714286 0.09620185714285716 0.1457112 0.11828292857142858 0.2301444428571429 0.02208107142857143 0.08444517857142858 0.02542307142857143 0.17269785000000004 0.009667928571428572 0.2585633785714286l-0.9787285714285715 4.774285714285715c-0.02279721428571429 0.13803653571428573 -0.09441150000000002 0.2633257285714286 -0.20171357142857146 0.3531061714285715 -0.10730207142857144 0.08979237857142859 -0.24324985714285718 0.13813202142857145 -0.38313642857142866 0.1362581142857143v0Z" stroke-width="1.29"></path>
    <path id="Vector_2" stroke="#000000" stroke-linecap="round" stroke-linejoin="round" d="m3.582898521428572 2.9839285714285717 -0.5013000000000001 -1.9097142857142861C3.0540867000000005 0.939417102857143 2.9808372214285717 0.8182648285714286 2.874263228571429 0.7312642135714287 2.767689235714286 0.6442635985714287 2.6343315000000005 0.5967570685714286 2.4967485214285716 0.5967857142857144H0.5989711435714287" stroke-width="1.29"></path>
    <path id="Vector_3" stroke="#000000" stroke-linecap="round" stroke-linejoin="round" d="m4.776469950000001 8.951785714285716 0.5013000000000001 2.5065000000000004c0.027511821428571434 0.13480195714285717 0.10076130000000001 0.25594945714285716 0.2073352928571429 0.3429488785714286 0.10657399285714286 0.08699942142857144 0.23994366428571431 0.13447969285714287 0.37751470714285723 0.13447969285714287h7.268814192857144" stroke-width="1.29"></path>
    <path id="Vector_4" stroke="#000000" stroke-linecap="round" stroke-linejoin="round" d="M12.53464842857143 16.11321428571429c-0.3295450714285715 0 -0.5967857142857144 -0.2672406428571429 -0.5967857142857144 -0.5967857142857144s0.2672406428571429 -0.5967857142857144 0.5967857142857144 -0.5967857142857144c0.32966442857142864 0 0.5967857142857144 0.2672406428571429 0.5967857142857144 0.5967857142857144s-0.26712128571428573 0.5967857142857144 -0.5967857142857144 0.5967857142857144Z" stroke-width="1.29"></path>
    <path id="Vector_5" stroke="#000000" stroke-linecap="round" stroke-linejoin="round" d="M6.566827092857143 16.11321428571429c-0.3295928142857143 0 -0.5967857142857144 -0.2672406428571429 -0.5967857142857144 -0.5967857142857144s0.26719290000000007 -0.5967857142857144 0.5967857142857144 -0.5967857142857144 0.5967857142857144 0.2672406428571429 0.5967857142857144 0.5967857142857144 -0.26719290000000007 0.5967857142857144 -0.5967857142857144 0.5967857142857144Z" stroke-width="1.29"></path>
  </g>
</svg>